<?xml version="1.0" standalone="no"?>
<!DOCTYPE svg PUBLIC "-//W3C//DTD SVG 20010904//EN"
 "http://www.w3.org/TR/2001/REC-SVG-20010904/DTD/svg10.dtd">
<svg version="1.0" xmlns="http://www.w3.org/2000/svg"
 width="300.000000pt" height="260.000000pt" viewBox="0 0 300.000000 260.000000"
 preserveAspectRatio="xMidYMid meet">
<metadata>
Created by potrace 1.10, written by Peter Selinger 2001-2011
</metadata>
<g transform="translate(0.000000,260.000000) scale(0.050000,-0.050000)"
fill="#000000" stroke="none">
<path d="M2230 5181 c-48 -20 -94 -70 -137 -151 -22 -41 -32 -49 -32 -24 -4
149 -212 -4 -251 -185 l-15 -69 -28 54 c-35 67 -31 67 -116 -8 -74 -65 -123
-190 -101 -259 17 -51 -13 -50 -46 1 -66 107 -199 -108 -175 -284 l14 -105
-50 46 c-111 104 -219 -148 -143 -331 35 -84 25 -106 -26 -59 -107 97 -192
-229 -94 -359 45 -60 39 -102 -9 -59 -116 105 -158 -179 -50 -338 61 -90 61
-89 -5 -85 -118 9 -107 -215 18 -358 l62 -71 -58 7 c-125 13 -85 -232 58 -355
l81 -69 -62 0 c-160 0 -64 -243 147 -374 34 -21 32 -24 -27 -25 -151 -3 9
-301 179 -335 69 -14 72 -38 6 -54 -138 -35 105 -312 273 -312 19 0 40 -9 47
-20 7 -11 31 -20 53 -20 23 0 103 -57 179 -128 164 -152 442 -300 658 -351 81
-19 151 -44 155 -56 23 -68 -223 -246 -382 -276 -94 -17 -84 -60 13 -57 94 3
282 99 352 179 46 53 61 59 88 39 65 -47 -117 -193 -335 -271 l-101 -36 111
-2 c130 -1 257 67 349 187 72 95 118 91 215 -19 106 -120 206 -169 339 -168
l106 2 -101 34 c-192 66 -390 213 -358 265 20 33 52 19 143 -61 94 -83 284
-167 353 -157 72 11 59 53 -21 68 -157 28 -405 202 -382 269 4 13 75 41 157
61 209 52 482 195 664 348 85 71 168 130 184 130 16 0 34 9 41 20 7 11 28 20
47 20 19 0 80 22 135 50 154 76 246 270 129 270 -23 0 -41 9 -41 20 0 11 16
20 35 20 158 0 337 313 195 340 l-60 12 60 32 c189 102 280 388 116 362 l-56
-9 65 57 c148 127 219 409 95 378 -64 -16 -63 -8 8 63 105 105 137 392 41 368
-16 -5 -47 -13 -69 -19 -35 -10 -34 -4 12 50 78 92 107 217 74 316 -27 80 -48
90 -122 60 -33 -14 -33 -10 3 53 63 109 70 204 25 307 -44 99 -53 104 -118 59
-53 -37 -53 -35 -12 63 77 183 -61 462 -159 323 -30 -43 -31 -40 -20 67 19
180 -111 384 -177 278 -33 -51 -63 -52 -46 -1 22 69 -27 194 -101 259 -85 75
-81 75 -116 8 l-28 -54 -15 69 c-39 179 -204 313 -241 195 -13 -41 -16 -40
-50 25 -55 108 -238 220 -239 147 -1 -65 -37 -73 -129 -28 -139 67 -312 30
-259 -55 40 -63 120 -107 203 -110 60 -2 78 -10 64 -26 -13 -16 -2 -40 34 -76
47 -48 85 -61 162 -58 14 0 40 -24 58 -54 38 -64 125 -121 185 -121 26 0 42
-13 42 -33 0 -62 82 -165 151 -190 60 -22 69 -34 69 -93 0 -54 18 -86 84 -151
56 -56 82 -98 79 -127 -8 -65 66 -218 124 -256 44 -29 48 -40 30 -89 -26 -75
7 -198 72 -268 46 -49 47 -56 19 -112 -37 -74 -21 -176 44 -272 26 -38 40 -70
32 -70 -430 -38 -685 36 -347 100 114 22 143 34 143 59 0 20 -189 6 -269 -20
-68 -22 -168 47 -115 79 117 73 323 238 323 260 1 24 -127 -37 -331 -160 -181
-108 -94 269 103 448 137 125 124 179 -17 71 -149 -114 -209 -178 -245 -258
-29 -65 -43 -76 -77 -66 -79 24 -75 44 87 379 202 419 184 452 -47 87 -97
-154 -172 -285 -166 -290 5 -6 44 44 85 111 101 163 108 141 16 -47 -72 -144
-107 -185 -107 -125 0 16 -19 71 -42 123 -71 160 5 473 168 694 74 100 12 89
-78 -14 -93 -106 -188 -274 -188 -334 0 -68 -37 -36 -68 59 -29 88 -29 111 8
325 46 263 47 280 21 280 -21 0 -27 -16 -73 -230 l-35 -160 -49 110 c-26 61
-48 133 -48 160 2 122 -137 312 -169 230 -12 -31 -2 -115 24 -202 14 -48 -45
-68 -203 -68 -86 0 -88 2 -88 65 -1 100 -23 215 -43 215 -9 0 -17 -71 -17
-158 l0 -157 -65 -26 c-36 -15 -99 -62 -140 -106 l-75 -80 -1 119 c-2 150 -24
271 -48 264 -11 -3 -20 -120 -20 -263 l-2 -257 -56 -41 c-69 -50 -73 -46 -154
170 -59 156 -99 218 -99 152 0 -70 108 -376 125 -353 14 20 16 19 10 -3 -24
-90 -279 -82 -312 9 -27 73 -77 100 -55 30 6 -22 17 -56 23 -76 9 -27 -6 -41
-60 -61 -86 -31 -85 -18 -11 -210 80 -206 77 -214 -37 -91 -159 174 -131 82
44 -143 90 -115 176 -248 191 -294 19 -55 40 -85 62 -85 32 0 100 -58 100 -85
0 -40 -401 179 -495 271 -121 118 -150 114 -77 -10 71 -122 140 -183 302 -264
331 -167 294 -187 -96 -52 -159 55 -300 100 -312 100 -38 0 -24 -37 20 -51 95
-30 523 -251 463 -239 -38 8 -119 0 -195 -19 -124 -31 -132 -31 -218 8 -134
61 -164 38 -47 -37 l65 -41 -125 -1 -125 0 0 66 c0 36 -13 84 -29 106 -26 37
-24 52 20 138 53 105 60 159 29 239 -16 43 -11 66 28 127 61 93 79 182 53 250
-16 44 -13 57 18 74 65 34 125 139 131 227 4 68 21 99 88 166 63 64 82 98 82
150 0 59 10 71 81 101 63 26 89 53 121 125 22 50 53 91 70 91 58 0 148 61 179
122 21 40 42 57 61 50 82 -31 233 92 182 148 -19 21 -17 23 13 13 84 -30 273
72 273 146 0 61 -167 74 -270 21 -43 -22 -85 -40 -93 -40 -8 0 -20 18 -27 40
-13 42 -52 49 -120 21z m70 -73 c0 -72 -110 -181 -150 -148 -36 30 3 119 74
169 62 43 76 39 76 -21z m369 34 c20 -32 -91 -102 -162 -102 -53 0 -67 8 -67
38 0 59 198 114 229 64z m703 -12 c81 -33 82 -77 3 -86 -55 -7 -175 45 -175
75 0 44 81 50 172 11z m304 -17 c56 -43 86 -127 54 -153 -23 -20 -41 -13 -90
36 -102 103 -72 201 36 117z m-1656 -154 c0 -91 -91 -209 -146 -188 -24 9 -27
25 -13 74 34 116 159 207 159 114z m1949 -22 c58 -68 63 -163 11 -172 -40 -6
-100 80 -114 166 -15 90 30 93 103 6z m-1577 20 c22 -36 -51 -77 -136 -77 -90
0 -96 18 -21 63 65 40 137 46 157 14z m1258 -28 l60 -49 -81 0 c-93 0 -190 54
-146 82 47 30 105 18 167 -33z m-1498 -112 c24 -39 -86 -117 -165 -117 l-71 0
57 69 c59 70 150 95 179 48z m1758 -52 l60 -72 -88 12 c-144 20 -220 137 -86
134 36 -1 74 -25 114 -74z m-741 -4 c39 -74 39 -101 1 -101 -16 0 -30 8 -30
18 0 9 -6 45 -12 80 -16 78 2 80 41 3z m-1429 -68 c0 -70 -13 -105 -71 -188
-45 -67 -88 100 -46 181 68 132 117 135 117 7z m2500 22 c49 -80 53 -186 7
-203 -18 -7 -34 -10 -36 -7 -58 83 -71 118 -71 189 0 107 43 115 100 21z
m-2300 -111 c0 -51 -220 -191 -251 -159 -5 5 9 32 31 60 22 28 40 60 40 71 0
12 11 25 25 31 41 16 155 14 155 -3z m2200 -74 c65 -94 60 -104 -34 -69 -58
22 -166 115 -166 143 0 63 142 10 200 -74z m-2638 -95 c26 -96 -18 -235 -74
-235 -45 0 -48 7 -48 106 0 163 88 256 122 129z m2967 6 c52 -100 42 -241 -17
-241 -74 0 -115 138 -72 249 25 67 52 65 89 -8z m-2829 10 c0 -39 -39 -60 -64
-35 -11 11 -14 30 -7 42 20 32 71 27 71 -7z m2665 17 c20 -19 -7 -68 -37 -68
-15 0 -28 12 -28 27 0 44 38 68 65 41z m-2597 -106 c18 -28 -73 -147 -144
-188 -78 -46 -100 -34 -56 29 18 25 32 66 32 91 0 33 16 50 65 64 87 25 91 25
103 4z m1598 -67 c16 -47 36 -100 44 -119 16 -40 -140 -91 -285 -94 -166 -3
-322 -98 -394 -239 -91 -179 -206 -250 -438 -272 -75 -7 -159 -22 -186 -32
-76 -29 -81 -26 -115 75 -52 152 -17 186 190 186 213 0 370 102 502 327 71
121 177 174 393 196 91 9 181 26 200 36 52 31 57 27 89 -64z m982 53 c18 -7
32 -23 32 -35 0 -13 18 -57 40 -98 43 -81 30 -91 -59 -45 -162 83 -173 239
-13 178z m-709 -181 c-21 -62 -39 -139 -39 -170 0 -31 -10 -57 -23 -57 -32 0
-11 133 40 247 56 128 69 117 22 -20z m-2284 -49 c54 -107 27 -278 -45 -278
-54 0 -70 33 -70 151 0 163 62 232 115 127z m3374 3 c59 -114 34 -281 -42
-281 -81 0 -107 186 -40 289 42 64 45 64 82 -8z m-3221 8 c6 -18 -2 -36 -20
-42 -37 -15 -78 21 -59 51 20 32 65 27 79 -9z m3052 -10 c0 -52 -66 -46 -76 6
-5 24 6 35 35 35 28 0 41 -13 41 -41z m-2961 -124 c-18 -63 -171 -230 -192
-209 -38 39 46 235 112 262 90 35 102 27 80 -53z m2936 18 c29 -46 79 -214 66
-222 -59 -37 -256 227 -207 276 14 15 124 -27 141 -54z m-1043 -224 c-19 -73
-113 -268 -138 -283 -13 -8 -16 0 -8 21 7 18 19 91 26 162 13 129 23 142 105
149 19 1 24 -13 15 -49z m78 -9 c19 -85 -4 -172 -82 -313 -37 -68 -68 -138
-68 -155 0 -57 49 -34 90 42 77 142 124 60 56 -99 -38 -89 -23 -116 35 -64 61
55 94 -2 37 -64 -64 -67 -10 -77 95 -18 108 60 107 60 107 22 0 -45 -122 -127
-200 -134 -43 -5 -71 -18 -74 -37 -2 -16 -9 -73 -16 -125 l-12 -95 -619 0
c-608 0 -619 1 -619 41 0 31 -52 66 -244 160 -134 66 -247 124 -252 128 -4 4
94 -28 219 -73 290 -103 297 -105 297 -79 0 35 -196 180 -340 253 -73 37 -145
83 -161 103 -26 33 -26 34 2 13 16 -13 104 -55 194 -93 90 -38 203 -97 249
-132 112 -82 120 -45 19 85 -103 132 -70 175 41 53 89 -98 138 -89 75 13 l-42
68 61 0 c34 0 62 -9 62 -20 0 -11 9 -20 20 -20 11 0 20 13 20 28 0 16 31 39
69 52 38 12 90 39 116 60 26 20 65 35 86 33 30 -2 40 14 49 77 11 74 75 201
93 184 4 -5 14 -60 22 -124 8 -64 25 -120 36 -124 20 -6 90 242 89 318 0 32
72 71 93 50 5 -5 1 -89 -10 -187 -11 -97 -15 -183 -10 -192 25 -40 43 1 88
187 40 173 77 246 108 215 4 -4 -9 -102 -30 -217 -46 -251 -45 -240 -13 -240
33 0 192 309 207 405 15 90 39 97 57 15z m-310 25 c0 -8 -18 -69 -40 -135 -22
-66 -36 -97 -30 -70 5 28 10 88 10 135 0 62 8 85 30 85 17 0 30 -7 30 -15z
m-1910 -54 c0 -44 -28 -58 -68 -33 -38 24 -11 87 33 78 19 -4 35 -24 35 -45z
m3379 31 c17 -28 -10 -82 -40 -82 -35 0 -55 35 -41 71 12 32 63 39 81 11z
m-3478 -172 c18 -95 -2 -163 -52 -176 -77 -20 -132 206 -76 311 30 56 108 -26
128 -135z m3629 119 c50 -130 -5 -321 -84 -291 -63 23 -66 203 -6 286 50 68
66 69 90 5z m-1843 -44 c-29 -106 -57 -127 -57 -43 0 65 28 118 62 118 8 0 6
-34 -5 -75z m-1577 -26 c0 -90 -133 -295 -167 -257 -37 40 17 241 74 277 84
54 93 52 93 -20z m2548 -34 c-26 -52 -52 -121 -59 -153 -8 -40 -18 -51 -32
-37 -29 29 12 149 76 226 68 80 71 75 15 -36z m615 60 c60 -35 66 -49 86 -200
13 -99 -2 -106 -73 -30 -69 75 -96 131 -96 204 0 71 4 72 83 26z m-1024 -137
c-57 -92 -65 -79 -23 37 24 69 38 86 50 64 11 -20 1 -55 -27 -101z m227 -89
c28 -22 58 -60 66 -85 17 -57 117 -201 205 -299 l70 -77 -116 6 -116 6 -79
200 c-96 241 -103 250 -190 250 -40 0 -63 8 -56 20 22 36 162 22 216 -21z
m-96 -59 c17 -27 -41 -48 -84 -31 -30 11 -31 16 -5 32 38 24 74 24 89 -1z
m-2470 -38 c0 -38 -46 -70 -68 -47 -29 28 -10 85 28 85 26 0 40 -13 40 -38z
m3560 -1 c0 -21 -10 -45 -22 -52 -30 -19 -66 22 -51 60 17 44 73 39 73 -8z
m-3687 -78 c40 -59 82 -215 63 -234 -71 -71 -176 50 -176 203 0 129 39 140
113 31z m3835 45 c43 -112 -43 -316 -125 -295 -73 20 -49 185 42 282 50 53 67
56 83 13z m-3592 -85 c-9 -91 -77 -223 -115 -223 -53 0 -37 211 21 265 85 80
105 71 94 -42z m2373 79 c6 -10 0 -22 -14 -27 -37 -13 -96 7 -84 27 15 24 83
23 98 0z m998 -68 c19 -30 24 -77 15 -151 l-12 -107 -44 47 c-71 76 -114 242
-73 283 19 19 83 -22 114 -72z m-957 -14 c17 -27 -41 -48 -84 -31 -30 11 -31
16 -5 32 38 24 74 24 89 -1z m-2570 -279 c0 -54 -38 -72 -74 -35 -37 36 -19
74 35 74 25 0 39 -14 39 -39z m3630 -11 c0 -22 -15 -42 -32 -46 -35 -6 -66 47
-46 79 20 33 78 9 78 -33z m-1090 -38 c0 -109 245 -124 256 -15 9 83 104 96
104 14 0 -64 52 -91 179 -91 99 0 101 1 101 60 0 59 2 60 100 60 l100 0 0 -78
c0 -43 6 -93 12 -111 11 -29 -38 -31 -505 -26 l-517 5 6 70 c10 114 23 137 80
146 30 4 61 9 69 11 8 2 15 -18 15 -45z m96 1 c4 -19 -6 -33 -25 -33 -18 0
-31 17 -31 42 0 48 47 42 56 -9z m-2500 -48 c7 -70 -61 -245 -95 -245 -11 0
-21 22 -21 49 0 26 -9 72 -20 101 -17 43 -12 65 22 113 54 76 106 68 114 -18z
m3407 14 c35 -46 36 -60 12 -167 -30 -129 -46 -126 -106 18 -66 157 5 269 94
149z m237 -26 c0 -142 -102 -264 -179 -215 -41 27 6 172 79 245 78 78 100 72
100 -30z m-3882 -4 c34 -39 62 -87 62 -108 0 -21 5 -50 10 -64 6 -15 -12 -37
-40 -50 -67 -31 -132 57 -146 196 -11 121 23 129 114 26z m1022 -18 c64 -24
50 -26 -170 -26 -226 0 -235 2 -150 25 119 33 234 33 320 1z m120 -130 c0 -30
-21 -45 -85 -62 -181 -47 -452 -147 -601 -222 -154 -77 -155 -78 -143 -29 15
57 -20 178 -63 221 -23 23 -24 39 -5 80 l23 51 437 0 c421 0 437 -1 437 -39z
m1520 -131 l0 -110 -123 0 -122 0 12 92 c17 124 21 128 134 128 l99 0 0 -110z
m420 0 l0 -110 -180 0 -180 0 0 110 0 110 180 0 180 0 0 -110z m420 77 c0 -19
-15 -68 -34 -110 l-34 -77 -146 0 -146 0 0 110 0 110 180 0 c155 0 180 -5 180
-33z m-2304 -70 c5 -44 -6 -53 -109 -85 -63 -20 -181 -67 -263 -104 -162 -74
-495 -106 -423 -41 64 58 714 299 769 285 11 -3 23 -27 26 -55z m-1098 5 c34
-22 15 -82 -26 -82 -38 0 -59 34 -44 71 12 33 30 36 70 11z m1923 -27 c57 -68
49 -75 -81 -75 -129 0 -137 7 -89 76 41 57 122 57 170 -1z m1715 0 c8 -42 -50
-69 -80 -39 -30 30 -3 88 39 80 19 -3 38 -22 41 -41z m-3488 -27 c22 -58 12
-189 -19 -249 -39 -76 -62 -75 -75 6 -6 36 -17 90 -25 120 -24 96 86 210 119
123z m1360 0 c8 -21 -1 -35 -28 -42 -22 -6 -34 -19 -27 -30 6 -11 -7 -10 -31
3 -23 12 -42 33 -42 47 0 15 -8 13 -20 -6 -17 -26 -19 -26 -20 2 0 65 144 88
168 26z m1991 -17 c49 -52 24 -302 -28 -285 -56 19 -88 177 -58 289 15 57 29
57 86 -4z m-3561 -81 c81 -93 100 -167 51 -203 -47 -35 -101 -2 -152 94 -87
162 -15 240 101 109z m3822 26 c0 -64 -72 -202 -122 -233 -59 -36 -109 11 -90
85 32 127 212 253 212 148z m-1585 -30 c30 -92 -377 -139 -458 -52 -23 23 -37
50 -31 60 17 27 479 20 489 -8z m205 -116 l0 -110 -70 0 c-80 0 -81 1 -38 126
48 142 108 133 108 -16z m400 0 l0 -110 -180 0 -180 0 0 110 0 110 180 0 180
0 0 -110z m410 0 l0 -100 -175 0 -175 0 0 106 0 106 175 -6 175 -6 0 -100z
m164 26 c19 -72 18 -88 -11 -109 -75 -57 -103 -34 -103 83 0 148 77 166 114
26z m-1998 -64 c6 -26 35 -32 157 -32 l150 0 -7 -55 c-7 -65 -60 -80 -363
-101 -194 -14 -198 -13 -215 32 -30 79 -22 124 23 124 23 0 36 9 29 20 -23 38
6 50 113 47 81 -1 109 -10 113 -35z m-576 -144 c0 -53 -39 -148 -61 -148 -23
0 -34 187 -13 215 27 36 74 -6 74 -67z m-704 27 c8 -42 -50 -69 -80 -39 -30
30 -3 88 39 80 19 -3 38 -22 41 -41z m153 -14 c35 -67 40 -175 11 -250 -25
-68 -54 -65 -70 8 -7 32 -25 69 -41 82 -39 33 -36 77 11 154 48 79 51 80 89 6z
m394 26 c27 -24 37 -61 36 -135 l0 -102 -60 65 c-97 108 -76 263 24 172z
m2329 -19 c-7 -17 -18 -54 -25 -81 -16 -65 -79 -55 -72 12 7 59 40 101 80 101
19 0 25 -12 17 -32z m480 -39 c28 -67 27 -78 -16 -170 -56 -118 -68 -121 -95
-24 -27 98 -26 113 8 196 37 88 65 87 103 -2z m128 31 c0 -26 -13 -40 -39 -40
-44 0 -69 30 -51 60 23 37 90 22 90 -20z m-1566 -8 c7 -6 0 -12 -16 -12 -24
-1 -24 -3 0 -18 36 -23 17 -73 -39 -103 -29 -15 -39 -16 -30 -1 8 13 1 17 -18
10 -17 -7 -31 -21 -31 -32 0 -11 -12 -16 -28 -10 -15 6 -36 2 -47 -9 -46 -46
-17 95 30 145 47 50 143 66 179 30z m566 -42 c0 -59 -7 -70 -45 -70 -25 0
-112 -18 -193 -41 -185 -51 -185 -51 -137 76 l40 105 168 0 167 0 0 -70z m262
25 c-33 -89 -202 -102 -202 -15 0 59 1 60 109 60 105 0 109 -2 93 -45z m218
-35 c0 -67 -7 -80 -40 -80 -46 0 -48 11 -18 97 30 87 58 79 58 -17z m232 48
c-7 -17 -12 -41 -12 -52 0 -29 -142 -4 -163 28 -30 48 -18 56 85 56 85 0 100
-5 90 -32z m-2760 -77 c6 -27 25 -60 40 -73 47 -39 31 -57 -32 -35 -108 38
-161 157 -70 157 36 0 53 -13 62 -49z m-493 -23 c95 -80 131 -161 91 -201 -61
-61 -195 55 -223 191 -16 81 43 85 132 10z m3661 17 c0 -73 -134 -243 -193
-244 -51 -2 -71 54 -39 115 63 122 232 216 232 129z m-416 -95 c6 -54 0 -72
-27 -81 -56 -18 -120 -140 -124 -239 -1 -49 -5 -90 -7 -90 -20 0 -106 50 -106
62 0 17 78 356 90 393 22 65 165 29 174 -45z m-2416 0 c13 -53 -53 -210 -88
-210 -28 0 -46 92 -31 155 28 110 97 142 119 55z m1865 -100 c-60 -142 -66
-149 -117 -138 -115 23 -80 -219 45 -317 l59 -46 -94 -166 c-215 -380 -562
-646 -705 -541 -79 59 -187 58 -251 -2 -70 -66 -227 1 -417 179 -101 94 -293
349 -293 390 0 29 286 241 484 358 199 118 211 108 184 -139 l-11 -101 -141
-76 c-120 -65 -146 -73 -189 -53 -56 25 -200 -21 -177 -58 8 -13 25 -14 50 0
118 63 158 19 107 -115 -40 -104 -35 -110 60 -83 97 27 205 123 233 208 30 92
82 105 153 39 31 -28 81 -57 112 -63 43 -9 69 -35 107 -111 60 -116 63 -109
-71 -135 -182 -34 -202 -30 -188 42 15 74 -9 65 -141 -49 l-77 -68 97 -37
c377 -146 819 82 940 484 l27 91 -64 -14 c-35 -8 -100 -25 -145 -39 l-80 -24
56 -23 c68 -28 57 -54 -73 -180 l-90 -88 -39 77 -39 77 87 77 c111 98 112 123
3 73 -114 -51 -144 -49 -176 16 -15 30 -31 60 -34 67 -17 33 243 122 328 113
101 -12 126 33 30 54 -72 16 -146 -1 -267 -62 -97 -48 -160 -63 -125 -29 72
70 327 181 414 182 71 0 95 8 95 30 0 66 -156 36 -351 -70 -163 -87 -187 -95
-198 -65 -21 55 98 151 174 140 51 -7 68 3 118 72 l59 81 -45 34 c-48 36 -64
31 413 136 44 10 113 19 153 20 l72 2 -62 -150z m161 134 c30 -19 11 -104 -22
-104 -39 0 -68 41 -57 82 10 40 39 48 79 22z m136 -44 c22 -36 -11 -100 -51
-100 -39 0 -57 76 -26 107 20 20 63 16 77 -7z m-2378 -108 c58 -58 91 -132 58
-132 -39 0 -175 72 -191 101 -60 113 30 134 133 31z m537 49 c7 -11 26 -14 42
-8 16 6 45 -1 63 -16 23 -19 29 -19 19 -2 -9 14 -6 25 6 25 34 0 10 -160 -29
-197 -28 -26 -32 -26 -21 -3 8 17 -3 9 -24 -17 -34 -42 -43 -44 -82 -20 -40
25 -46 36 -51 102 -1 14 -18 41 -37 60 -29 29 -31 41 -10 65 29 32 107 40 124
11z m487 -5 c13 -13 24 -43 24 -66 0 -23 -11 -53 -24 -66 -13 -13 -43 -24 -66
-24 -23 0 -53 11 -66 24 -13 13 -24 43 -24 66 0 23 11 53 24 66 13 13 43 24
66 24 23 0 53 -11 66 -24z m424 -25 c0 -79 -74 -151 -155 -151 -48 0 -106 -10
-129 -22 -42 -23 -92 15 -60 45 34 33 344 148 344 128z m754 -13 c32 -32 7
-98 -37 -98 -43 0 -67 44 -50 90 14 35 56 39 87 8z m-2455 -96 c29 -70 20
-246 -14 -257 -14 -5 -25 5 -25 22 0 16 -22 57 -50 89 -58 70 -60 82 -20 177
34 81 67 72 109 -31z m2597 11 c-7 -46 -68 -69 -100 -37 -13 13 -12 34 2 60
29 55 107 36 98 -23z m326 -11 c21 -72 19 -83 -29 -147 -29 -38 -53 -80 -53
-94 0 -76 -51 7 -55 91 -10 178 94 292 137 150z m-3089 27 c7 -18 2 -42 -10
-54 -29 -29 -95 29 -74 63 20 32 70 27 84 -9z m3223 -14 c-3 -25 -19 -45 -36
-45 -16 0 -33 20 -36 45 -5 35 3 45 36 45 33 0 41 -10 36 -45z m-2520 -39 c8
-66 -46 -176 -87 -176 -35 0 -41 141 -8 203 30 55 88 39 95 -27z m1864 -16
c32 -17 34 -29 15 -90 -26 -85 -35 -86 -79 -10 -53 93 -20 145 64 100z m-989
-222 c109 -217 123 -271 58 -217 -48 39 -213 379 -201 411 18 48 29 34 143
-194z m-1631 162 c98 -50 158 -151 115 -193 -39 -40 -112 -9 -191 82 -115 131
-75 188 76 111z m546 -16 c52 -54 73 -124 37 -124 -48 0 -146 49 -163 81 -58
107 35 138 126 43z m2834 35 c0 -76 -156 -247 -216 -235 -61 12 -73 67 -28
131 63 88 244 166 244 104z m-1703 -37 c-33 -27 -51 -31 -61 -16 -16 27 19 53
71 54 33 0 32 -5 -10 -38z m820 -9 c56 -60 82 -193 38 -193 -40 0 -95 87 -109
172 -13 80 10 87 71 21z m303 32 c-1 -45 -131 -141 -156 -116 -31 31 44 131
98 131 32 0 58 -7 58 -15z m-1968 -114 c13 -53 -47 -201 -82 -201 -44 0 -58
108 -24 180 39 82 88 91 106 21z m2028 -14 c0 -55 -173 -152 -232 -129 -30 12
-30 17 4 55 66 74 228 127 228 74z m-1282 -183 c47 -112 142 -165 261 -147
l71 11 -58 -31 c-121 -65 -308 11 -352 143 -27 81 -6 230 22 160 8 -22 34 -83
56 -136z m-1203 101 c71 -76 119 -275 67 -275 -53 0 -162 147 -162 219 0 112
27 128 95 56z m243 -17 c103 -102 69 -154 -58 -88 -64 33 -109 99 -90 130 23
38 87 20 148 -42z m2330 30 c30 -78 11 -141 -67 -217 -90 -88 -117 -70 -92 59
21 116 133 227 159 158z m-2717 -29 c18 -30 -28 -79 -62 -66 -44 17 -36 87 10
87 21 0 44 -9 52 -21z m2862 -10 c7 -18 2 -42 -9 -53 -29 -29 -86 16 -71 55
15 39 65 37 80 -2z m-348 -164 c-8 -186 -28 -235 -125 -320 -190 -164 -383
-274 -607 -343 -191 -59 -225 -52 -83 18 229 111 456 348 586 608 60 121 70
130 139 137 41 5 80 10 85 12 6 1 8 -49 5 -112z m-2454 -14 c71 -55 81 -81 50
-130 -44 -69 -281 77 -281 173 0 48 147 21 231 -43z m2889 36 c0 -47 -129
-161 -201 -177 -92 -21 -134 41 -73 108 84 91 274 139 274 69z m-920 -38 c0
-114 -186 -326 -357 -406 -216 -101 -599 -68 -485 42 l46 45 -13 -45 c-20 -64
212 -65 379 -2 196 76 432 317 360 370 -35 25 -34 27 16 27 35 0 54 -11 54
-31z m-923 -68 c-22 -65 -142 -181 -186 -181 -55 0 26 150 106 197 96 56 105
54 80 -16z m-526 -106 c112 -181 297 -354 471 -441 167 -83 147 -94 -55 -32
-219 68 -411 176 -601 337 l-83 71 93 95 c51 52 94 95 95 95 2 0 38 -56 80
-125z m-335 20 c8 -42 -50 -69 -80 -39 -30 30 -3 88 39 80 19 -3 38 -22 41
-41z m1385 -38 c34 -67 37 -86 16 -99 -19 -12 -39 7 -70 68 -38 74 -36 111 8
114 2 0 23 -37 46 -83z m999 32 c0 -41 -60 -62 -81 -28 -22 36 -5 59 42 59 22
0 39 -14 39 -31z m-1146 -492 c121 -114 -47 -290 -182 -191 -56 41 -54 150 4
195 64 51 121 49 178 -4z"/>
<path d="M2436 3139 c-133 -70 -121 -104 16 -47 61 26 90 28 149 10 96 -29 99
-28 99 16 0 72 -145 84 -264 21z"/>
<path d="M2853 3167 c-30 -31 -13 -91 22 -78 82 32 142 33 214 3 97 -41 123
-40 88 1 -55 67 -279 118 -324 74z"/>
<path d="M2437 3022 c-26 -21 -40 -45 -32 -54 9 -8 26 -5 39 8 36 36 49 29 48
-21 -3 -63 86 -77 102 -16 9 33 17 37 39 19 34 -29 56 -11 40 31 -27 71 -165
90 -236 33z"/>
<path d="M2893 3018 c-30 -22 -48 -50 -41 -61 7 -12 27 -6 48 13 35 31 37 30
43 -13 9 -63 84 -65 93 -2 8 50 25 56 60 21 13 -13 30 -16 39 -8 66 67 -162
114 -242 50z"/>
</g>
</svg>
